<svg id="visual" viewBox="0 0 1920 1080" width="1920" height="1080" xmlns="http://www.w3.org/2000/svg" xmlns:xlink="http://www.w3.org/1999/xlink" version="1.1"><path d="M0 487L640 293L1280 465L1920 314L1920 0L1280 0L640 0L0 0Z" fill="#d1f7ff"></path><path d="M0 822L640 681L1280 714L1920 541L1920 312L1280 463L640 291L0 485Z" fill="#9fe3f9"></path><path d="M0 941L640 843L1280 930L1920 800L1920 539L1280 712L640 679L0 820Z" fill="#6ccdf7"></path><path d="M0 1081L640 1081L1280 1081L1920 1081L1920 798L1280 928L640 841L0 939Z" fill="#29b6f6"></path></svg>